# xmcd
# 
# Track frame offsets:
#     150
#     20292
#     35695
#     51282
# 
# Disc length: 1114
# 
# Revision: 0
# Processed by: cddbd v1.5.2PL0 Copyright (c) Steve Scherf et al.
# Submitted via: fre:ac v1.0.17
# 
DISCID=2c045804
DTITLE=Urusei Yatsura - Yon Kyoku Iri EP 
DYEAR=1999
DGENRE=Indie Rock
TTITLE0=Kaytronika 
TTITLE1=Still Exploding
TTITLE2=Nobody Knows We're Stars
TTITLE3=Mother Of The MBK
EXTD=
EXTT0=
EXTT1=
EXTT2=
EXTT3=
PLAYORDER=
